# xmcd
#
# Track frame offsets: 
#        150
#        17893
#        33079
#        56980
#        80110
#        113317
#        141350
#        171037
#        183340
#        223569
#
# Disc length: 3510 seconds
#
# Revision: 1
# Processed by: cddbd v1.5.1PL2 Copyright (c) Steve Scherf et al.
# Submitted via: ExactAudioCopy v0.95b4
#
DISCID=850db40a
DTITLE=Jerry "Boogie" McCain - Boogie Is My Name
DYEAR=2005
DGENRE=Blues
TTITLE0=Boogie Is My Name
TTITLE1=My New Next Door Neighbor
TTITLE2=Big Butt Sara
TTITLE3=Potato Patch
TTITLE4=House Party Boogie
TTITLE5=Short Skirt And Big Legs
TTITLE6=Lowdown Dirty Rat
TTITLE7=Jimmyroll
TTITLE8=Cry'n Won't Do No Good
TTITLE9=Demons Of The Body
EXTD=
EXTT0=
EXTT1=
EXTT2=
EXTT3=
EXTT4=
EXTT5=
EXTT6=
EXTT7=
EXTT8=
EXTT9=
PLAYORDER=
